<svg width="103" height="56" viewBox="0 0 103 56" fill="none" xmlns="http://www.w3.org/2000/svg">
<g filter="url(#filter0_d_38_21)">
<rect x="7" y="2" width="42" height="42" rx="8" fill="#283036"/>
</g>
<path d="M33.8333 14.25C31.3833 14.25 29.225 15.475 28 17.4C26.775 15.475 24.6167 14.25 22.1667 14.25C18.3167 14.25 15.1667 17.4 15.1667 21.25C15.1667 28.1917 28 35.25 28 35.25C28 35.25 40.8333 28.25 40.8333 21.25C40.8333 17.4 37.6833 14.25 33.8333 14.25Z" fill="#FD3B41"/>
<rect x="61" y="2" width="42" height="42" rx="8" fill="#242C32"/>
<path d="M84.5 24.25H83.25V23C83.25 22.6685 83.1183 22.3505 82.8839 22.1161C82.6495 21.8817 82.3315 21.75 82 21.75C81.6685 21.75 81.3505 21.8817 81.1161 22.1161C80.8817 22.3505 80.75 22.6685 80.75 23V24.25H79.5C79.1685 24.25 78.8505 24.3817 78.6161 24.6161C78.3817 24.8505 78.25 25.1685 78.25 25.5C78.25 25.8315 78.3817 26.1495 78.6161 26.3839C78.8505 26.6183 79.1685 26.75 79.5 26.75H80.75V28C80.75 28.3315 80.8817 28.6495 81.1161 28.8839C81.3505 29.1183 81.6685 29.25 82 29.25C82.3315 29.25 82.6495 29.1183 82.8839 28.8839C83.1183 28.6495 83.25 28.3315 83.25 28V26.75H84.5C84.8315 26.75 85.1495 26.6183 85.3839 26.3839C85.6183 26.1495 85.75 25.8315 85.75 25.5C85.75 25.1685 85.6183 24.8505 85.3839 24.6161C85.1495 24.3817 84.8315 24.25 84.5 24.25Z" fill="white" fill-opacity="0.55"/>
<path d="M91.375 16.8125H82.625L79.3375 12.8375C79.2212 12.6941 79.0745 12.5783 78.9081 12.4983C78.7417 12.4183 78.5596 12.3762 78.375 12.375H72.625C71.8083 12.365 71.0208 12.679 70.4351 13.2483C69.8494 13.8176 69.5132 14.5958 69.5 15.4125V30.5875C69.5132 31.4042 69.8494 32.1824 70.4351 32.7517C71.0208 33.321 71.8083 33.635 72.625 33.625H91.375C92.1917 33.635 92.9792 33.321 93.5649 32.7517C94.1506 32.1824 94.4868 31.4042 94.5 30.5875V19.85C94.4868 19.0333 94.1506 18.2551 93.5649 17.6858C92.9792 17.1165 92.1917 16.8025 91.375 16.8125ZM92 30.5625C91.9953 30.6392 91.9753 30.7142 91.9411 30.783C91.9069 30.8518 91.8593 30.9131 91.801 30.9632C91.7427 31.0133 91.675 31.0512 91.6019 31.0747C91.5287 31.0982 91.4515 31.1068 91.375 31.1H72.625C72.5485 31.1068 72.4713 31.0982 72.3982 31.0747C72.325 31.0512 72.2573 31.0133 72.199 30.9632C72.1407 30.9131 72.0931 30.8518 72.0589 30.783C72.0247 30.7142 72.0047 30.6392 72 30.5625V15.4125C72.0047 15.3358 72.0247 15.2608 72.0589 15.192C72.0931 15.1231 72.1407 15.0619 72.199 15.0118C72.2573 14.9617 72.325 14.9237 72.3982 14.9002C72.4713 14.8767 72.5485 14.8682 72.625 14.875H77.7875L81.0375 18.85C81.1538 18.9934 81.3005 19.1092 81.4669 19.1892C81.6333 19.2692 81.8154 19.3113 82 19.3125H91.375C91.4515 19.3057 91.5287 19.3142 91.6019 19.3377C91.675 19.3612 91.7427 19.3992 91.801 19.4493C91.8593 19.4994 91.9069 19.5606 91.9411 19.6295C91.9753 19.6983 91.9953 19.7733 92 19.85V30.5625Z" fill="white" fill-opacity="0.55"/>
<defs>
<filter id="filter0_d_38_21" x="0" y="0" width="56" height="56" filterUnits="userSpaceOnUse" color-interpolation-filters="sRGB">
<feFlood flood-opacity="0" result="BackgroundImageFix"/>
<feColorMatrix in="SourceAlpha" type="matrix" values="0 0 0 0 0 0 0 0 0 0 0 0 0 0 0 0 0 0 127 0" result="hardAlpha"/>
<feMorphology radius="3" operator="erode" in="SourceAlpha" result="effect1_dropShadow_38_21"/>
<feOffset dy="5"/>
<feGaussianBlur stdDeviation="5"/>
<feColorMatrix type="matrix" values="0 0 0 0 0.0705882 0 0 0 0 0.0705882 0 0 0 0 0.0705882 0 0 0 0.15 0"/>
<feBlend mode="normal" in2="BackgroundImageFix" result="effect1_dropShadow_38_21"/>
<feBlend mode="normal" in="SourceGraphic" in2="effect1_dropShadow_38_21" result="shape"/>
</filter>
</defs>
</svg>
